<svg xmlns="http://www.w3.org/2000/svg" xmlns:xlink="http://www.w3.org/1999/xlink" viewBox="0 0 100.73 90"><defs><style>.cls-1{fill:#f48138;}.cls-2{fill:url(#linear-gradient);}.cls-3{fill:url(#linear-gradient-2);}.cls-4{fill:url(#New_Gradient_Swatch_4);}.cls-5{fill:#972924;}.cls-6{fill:#f9a719;}</style><linearGradient id="linear-gradient" x1="245.63" y1="334.92" x2="264.11" y2="334.92" gradientTransform="translate(-218.3 -312.86)" gradientUnits="userSpaceOnUse"><stop offset="0.25" stop-color="#b1d136"/><stop offset="0.93" stop-color="#57b847"/></linearGradient><linearGradient id="linear-gradient-2" x1="264.02" y1="318.98" x2="273.46" y2="333.13" gradientTransform="translate(-218.3 -312.86)" gradientUnits="userSpaceOnUse"><stop offset="0.17" stop-color="#80c242"/><stop offset="0.66" stop-color="#69a943"/><stop offset="1" stop-color="#5d9d43"/></linearGradient><linearGradient id="New_Gradient_Swatch_4" x1="296.32" y1="322.16" x2="279.19" y2="346.35" gradientTransform="translate(-218.3 -312.86)" gradientUnits="userSpaceOnUse"><stop offset="0.23" stop-color="#62ba47"/><stop offset="0.53" stop-color="#3ba65f"/><stop offset="0.83" stop-color="#1a9673"/><stop offset="1" stop-color="#0e907b"/></linearGradient></defs><title>ENZACTA-life-rebuilt-logo</title><g id="Capa_2" data-name="Capa 2"><g id="Capa_1-2" data-name="Capa 1"><g id="_Grupo_" data-name="&lt;Grupo&gt;"><g id="_Grupo_2" data-name="&lt;Grupo&gt;"><g id="_Grupo_3" data-name="&lt;Grupo&gt;"><path id="_Trazado_compuesto_" data-name="&lt;Trazado compuesto&gt;" class="cls-1" d="M31.78,84.2a.32.32,0,0,1,.64,0v5.5a.32.32,0,0,1-.64,0Z"/><path id="_Trazado_compuesto_2" data-name="&lt;Trazado compuesto&gt;" class="cls-1" d="M33.62,84.09a.38.38,0,1,1,.76,0,.38.38,0,0,1-.76,0ZM34,85.9a.31.31,0,0,1,.33.3v3.5A.32.32,0,0,1,34,90a.31.31,0,0,1-.32-.3V86.2A.3.3,0,0,1,34,85.9Z"/><path id="_Trazado_compuesto_3" data-name="&lt;Trazado compuesto&gt;" class="cls-1" d="M36.43,85.28V86h1.11a.24.24,0,0,1,.24.24.26.26,0,0,1-.24.28H36.43V89.7a.31.31,0,0,1-.32.3.32.32,0,0,1-.32-.3V86.49h-.42a.26.26,0,0,1-.24-.28.24.24,0,0,1,.24-.24h.42v-.67a1.34,1.34,0,0,1,1.43-1.48c.64,0,1.23.37,1.23.92a.58.58,0,0,1-.56.62c-.14,0-.25-.08-.25-.18s.26-.11.26-.37-.32-.47-.66-.47C36.7,84.32,36.43,84.67,36.43,85.28Z"/><path id="_Trazado_compuesto_4" data-name="&lt;Trazado compuesto&gt;" class="cls-1" d="M41.69,89.36c0,.14-.08.23-.31.34a2.76,2.76,0,0,1-1.26.29,2,2,0,0,1-1.56-.65A2.1,2.1,0,0,1,38,87.89a2.14,2.14,0,0,1,.52-1.43A1.92,1.92,0,0,1,40,85.9a1.76,1.76,0,0,1,1.86,1.82c0,.21-.11.4-.34.4H38.71A1.55,1.55,0,0,0,39,89a1.41,1.41,0,0,0,1.11.48,1.92,1.92,0,0,0,.94-.21c.17-.09.25-.16.36-.16A.25.25,0,0,1,41.69,89.36Zm-.46-1.7a1.38,1.38,0,0,0-.31-.87,1.26,1.26,0,0,0-.91-.38,1.29,1.29,0,0,0-1,.42,1.37,1.37,0,0,0-.31.84Z"/><path id="_Trazado_compuesto_5" data-name="&lt;Trazado compuesto&gt;" class="cls-1" d="M43.06,90a.4.4,0,0,1-.4-.4.39.39,0,0,1,.4-.39.37.37,0,0,1,.4.39A.39.39,0,0,1,43.06,90Z"/><path id="_Trazado_compuesto_6" data-name="&lt;Trazado compuesto&gt;" class="cls-1" d="M49.51,86.7c0,.46-.27.67-.54.67s-.26-.09-.26-.19.27-.11.27-.38-.29-.38-.62-.38a.9.9,0,0,0-.73.37,2.1,2.1,0,0,0-.29,1.14V89.7a.33.33,0,0,1-.65,0V86.2a.33.33,0,0,1,.65,0v.33a1.21,1.21,0,0,1,1.15-.63C49.08,85.9,49.51,86.17,49.51,86.7Z"/><path id="_Trazado_compuesto_7" data-name="&lt;Trazado compuesto&gt;" class="cls-1" d="M53.51,89.36c0,.14-.09.23-.33.34a2.62,2.62,0,0,1-1.24.29,2,2,0,0,1-1.57-.65,2.07,2.07,0,0,1-.52-1.45,2.1,2.1,0,0,1,.52-1.43,1.9,1.9,0,0,1,1.45-.57,1.75,1.75,0,0,1,1.36.55,1.77,1.77,0,0,1,.5,1.28.36.36,0,0,1-.34.4H50.52a1.62,1.62,0,0,0,.35.88,1.41,1.41,0,0,0,1.1.48,1.93,1.93,0,0,0,.94-.21.84.84,0,0,1,.35-.16A.25.25,0,0,1,53.51,89.36Zm-.45-1.7a1.3,1.3,0,0,0-.32-.87,1.27,1.27,0,0,0-.91-.38,1.29,1.29,0,0,0-1,.42,1.56,1.56,0,0,0-.32.84Z"/><path id="_Trazado_compuesto_8" data-name="&lt;Trazado compuesto&gt;" class="cls-1" d="M55.32,86.14a2.15,2.15,0,0,1,1.08-.25,1.89,1.89,0,0,1,1.37.55,2.2,2.2,0,0,1,.49,1.49,2.05,2.05,0,0,1-.44,1.35A2.46,2.46,0,0,1,56,90a6,6,0,0,1-1-.07.36.36,0,0,1-.31-.39V84.2a.33.33,0,0,1,.32-.32.32.32,0,0,1,.33.32Zm0,3.29c.19,0,.48,0,.69,0a1.61,1.61,0,0,0,1.3-.53,1.77,1.77,0,0,0-.07-2.12,1.28,1.28,0,0,0-1-.39,1.89,1.89,0,0,0-1,.25Z"/><path id="_Trazado_compuesto_9" data-name="&lt;Trazado compuesto&gt;" class="cls-1" d="M59.25,86.2a.3.3,0,0,1,.32-.3.31.31,0,0,1,.33.3v2A1.49,1.49,0,0,0,60,89a1.32,1.32,0,0,0,2,0,1.45,1.45,0,0,0,.14-.76v-2a.33.33,0,0,1,.33-.3.31.31,0,0,1,.32.3v2a1.81,1.81,0,0,1-.29,1.11,1.71,1.71,0,0,1-1.52.65,1.76,1.76,0,0,1-1.53-.65,2,2,0,0,1-.28-1.11Z"/><path id="_Trazado_compuesto_10" data-name="&lt;Trazado compuesto&gt;" class="cls-1" d="M64,84.09a.39.39,0,1,1,.77,0,.39.39,0,0,1-.77,0Zm.39,1.8a.3.3,0,0,1,.33.3v3.5a.31.31,0,0,1-.33.3.32.32,0,0,1-.31-.3V86.2A.31.31,0,0,1,64.39,85.9Z"/><path id="_Trazado_compuesto_11" data-name="&lt;Trazado compuesto&gt;" class="cls-1" d="M66,84.2a.32.32,0,0,1,.31-.32.31.31,0,0,1,.32.32v5.5a.3.3,0,0,1-.32.3.31.31,0,0,1-.31-.3Z"/><path id="_Trazado_compuesto_12" data-name="&lt;Trazado compuesto&gt;" class="cls-1" d="M68,86v-.65a.32.32,0,0,1,.32-.31.31.31,0,0,1,.32.31V86h1.22a.25.25,0,0,1,.24.24.27.27,0,0,1-.24.28H68.63v2.11c0,.55.19.84.72.84s.64-.28.8-.28a.23.23,0,0,1,.24.26c0,.17-.17.32-.42.42a1.92,1.92,0,0,1-.74.16c-.93,0-1.25-.58-1.25-1.35V86.49h-.37a.29.29,0,0,1-.26-.28.27.27,0,0,1,.26-.24Z"/><path id="_Trazado_compuesto_13" data-name="&lt;Trazado compuesto&gt;" class="cls-1" d="M71.54,90a.41.41,0,0,1-.41-.4.4.4,0,0,1,.41-.39.38.38,0,0,1,.4.39A.39.39,0,0,1,71.54,90Z"/></g><g id="_Grupo_4" data-name="&lt;Grupo&gt;"><path id="_Trazado_" data-name="&lt;Trazado&gt;" class="cls-2" d="M27.6,7.84l-.28,1c.21,3.52.1,3.52.17,5.34s.34,4.45.28,5.62l0,.48.15.44a79.32,79.32,0,0,0,4.09,10.33l.15.18.25.15c.61.4.85,1.08,2.07,1.67s2.32,1.47,6.05,3.22L45,35.73l.56-.14.22-.05,0-.46-.38-4.18-.27-1.27-1.49-6.26-2.77-4.61-2.82-4-.67-1.07L34.45,11a64.05,64.05,0,0,1-6.68-3.16Z"/><path id="_Trazado_compuesto_14" data-name="&lt;Trazado compuesto&gt;" class="cls-3" d="M44,4c-1.57,2.54-2.54,3.92-3.06,5.06l-1.42,3.69L45,19.52l2.49,3.83.5-4.12.63-2.82,2.82-.13.1.08,0,.13c0,1.58,0,2,0,2.65s-.08,1.77-.09,2.13l0,.12-.83,3.93a9.62,9.62,0,0,1,.62.8h.13L55,20.4l1.18-1.51L57.49,17l1.67-1.9,1.1-1.38,0-.62a25.55,25.55,0,0,0-2.11-3.86c-.73-1-.83-1.93-1.77-2.81l-.12-.12L51.46,1.45,49.69,0a37.89,37.89,0,0,1-3.83,2.7A13.22,13.22,0,0,0,44,4Zm3.71,15.8"/><path id="_Trazado_compuesto_15" data-name="&lt;Trazado compuesto&gt;" class="cls-4" d="M53,38.05c0,.12.09.09.23.09l.3-.06a99.63,99.63,0,0,0,12.08-2.2l.36-.08.4-.23c2.43-1.75,4.06-2.54,8.67-6.12l.22-.19a.68.68,0,0,1,.12-.26A27.87,27.87,0,0,0,77,25.75a10.6,10.6,0,0,0,.49-1.37,17.86,17.86,0,0,0,1.66-3.95l-.33-8.93-.11-.42-.51-.1H76.78s-8.52,1.79-11,3.21a58.71,58.71,0,0,0-8,7.65,45.22,45.22,0,0,0-4.92,8.49l-.14.39a29.24,29.24,0,0,1,.12,3.91C52.86,35.71,53,37.35,53,38.05Z"/><path id="_Trazado_2" data-name="&lt;Trazado&gt;" class="cls-5" d="M49,45.57v0c-.64,5.56-.59,6.89-.73,8.09-.16,1.45-.32,4-.44,5.51l0,.14c-.7,0-1.11-.17-2-.23l-.17,0,0,0V56.93c.18-1.26.05-5.66.15-8s.49-5.6.49-7.65l.32-2.59c.48,0,.82.15,1.47.15,1,0,2.47.31,4.21.53l.18,3.38c.05,2.12.3,6.22.3,7.44s.13,1,.13,1.9.24,4.76.24,6.29,0,2,0,2.83l-3.06,0h-.08l-.08,0,0-.09V61c0-.52.09-2.53.21-4.91s.07-4.7.25-10.37l0-.07,0,0c-.54,0-.86-.07-1.19-.07Z"/></g><g id="_Grupo_5" data-name="&lt;Grupo&gt;"><path id="_Trazado_compuesto_16" data-name="&lt;Trazado compuesto&gt;" class="cls-6" d="M0,66.48H10.85v1.45H2.14v4.28H7.57v1.43H2.14v4.8h9.19v1.45H0Z"/><path id="_Trazado_compuesto_17" data-name="&lt;Trazado compuesto&gt;" class="cls-6" d="M14.23,66.48h2.05l9.19,10.28V66.48H27v13.4h-1.3L15.75,69V79.89H14.23Z"/><path id="_Trazado_compuesto_18" data-name="&lt;Trazado compuesto&gt;" class="cls-6" d="M30.35,78.58l9.5-10.65h-9V66.48H41.8l.81,1.24L33.09,78.44h9.52v1.45H31.16Z"/><path id="_Trazado_compuesto_19" data-name="&lt;Trazado compuesto&gt;" class="cls-6" d="M59.62,73.35c0-4.2,3.47-7.26,8-7.26A9,9,0,0,1,74,68.63l-1.08,1.1a7.52,7.52,0,0,0-5.3-2.33c-3.23,0-5.57,2.45-5.57,6a5.48,5.48,0,0,0,5.68,5.59,7.58,7.58,0,0,0,5.43-2.32l1,1.05a9.43,9.43,0,0,1-6.7,2.6C63.18,80.27,59.62,77.53,59.62,73.35Z"/><path id="_Trazado_compuesto_20" data-name="&lt;Trazado compuesto&gt;" class="cls-6" d="M79.67,67.93H74.9V66.48H86.6v1.45H81.84v12H79.67Z"/><polygon id="_Trazado_3" data-name="&lt;Trazado&gt;" class="cls-6" points="93.73 66.48 91.64 66.56 93.98 71.22 89.6 71.22 89.44 71.55 89.44 71.56 89.44 71.55 85.38 79.89 87.17 79.89 90.49 72.58 94.66 72.58 98.27 79.89 100.73 79.89 93.73 66.48"/><polygon id="_Trazado_4" data-name="&lt;Trazado&gt;" class="cls-6" points="51.71 66.48 49.63 66.56 51.95 71.22 47.58 71.22 47.42 71.55 47.42 71.56 47.42 71.55 43.36 79.89 45.15 79.89 48.47 72.58 52.63 72.58 56.25 79.89 58.71 79.89 51.71 66.48"/></g></g><g id="_Grupo_6" data-name="&lt;Grupo&gt;"><path id="_Trazado_compuesto_21" data-name="&lt;Trazado compuesto&gt;" class="cls-1" d="M98.13,59.49A2.53,2.53,0,1,1,95.53,62,2.51,2.51,0,0,1,98.13,59.49Zm0,4.52a2,2,0,1,0-1.91-2A1.92,1.92,0,0,0,98.13,64Zm-1-3.42h1.07c.71,0,1.11.22,1.11.84a.71.71,0,0,1-.75.76l.76,1.24h-.59L98,62.22h-.35v1.21h-.56Zm.56,1.19h.5c.32,0,.56,0,.56-.39s-.33-.35-.58-.35h-.47Z"/></g></g></g></g></svg>